<svg width="13" height="14" viewBox="0 0 13 14" fill="none" xmlns="http://www.w3.org/2000/svg">
<path d="M5.01664 12.6589C5.21107 12.6589 5.36678 12.5032 5.36678 12.3088V5.44511C5.36678 5.25067 5.21108 5.09497 5.01664 5.09497C4.8222 5.09497 4.6665 5.25067 4.6665 5.44511V12.3277C4.6665 12.5031 4.8222 12.6589 5.01664 12.6589Z" fill="#D2D2D2"/>
<path d="M7.23295 12.6589C7.42738 12.6589 7.58308 12.5032 7.58308 12.3088V5.44511C7.58308 5.25067 7.42739 5.09497 7.23295 5.09497C7.03851 5.09497 6.88281 5.25067 6.88281 5.44511V12.3277C6.88281 12.5031 7.03851 12.6589 7.23295 12.6589Z" fill="#D2D2D2"/>
<path d="M11.0828 2.11979H8.69103V1.08914C8.69103 0.486084 8.20494 0 7.60189 0L4.64669 0.000759506C4.04364 0.000759506 3.55755 0.486844 3.55755 1.0899V2.12055L1.1666 2.11979C0.524815 2.11979 0 2.64461 0 3.2864C0 3.92818 0.524815 4.453 1.1666 4.453H1.36104V12.522C1.36104 13.3385 2.10004 14 2.99397 14H9.25453C10.1492 14 10.8875 13.3392 10.8875 12.522L10.8882 4.453H11.0827C11.7244 4.453 12.2493 3.92818 12.2493 3.2864C12.2493 2.64537 11.7245 2.11979 11.0828 2.11979ZM4.23889 1.0899C4.23889 0.87571 4.41357 0.681276 4.64751 0.681276H7.6027C7.81689 0.681276 8.01133 0.855963 8.01133 1.0899V2.12055L4.23893 2.11979L4.23889 1.0899ZM10.2078 12.522C10.2078 12.9496 9.78021 13.3195 9.25539 13.3195H2.99405C2.46923 13.3195 2.04163 12.9694 2.04163 12.522V4.45302H10.2078L10.2078 12.522ZM11.0828 3.75344H1.16664C0.913721 3.75344 0.700311 3.53926 0.700311 3.28711C0.700311 3.03419 0.914499 2.82078 1.16664 2.82078H11.0828C11.3357 2.82078 11.5491 3.03497 11.5491 3.28711C11.5491 3.53926 11.3547 3.75344 11.0828 3.75344Z" fill="#D2D2D2"/>
</svg>
