<svg width="16" height="16" viewBox="0 0 16 16" fill="none" xmlns="http://www.w3.org/2000/svg">
<path d="M15.0119 5.25452C15.0162 5.24087 15.0191 5.22681 15.0206 5.21257C15.0206 5.21257 15.0206 5.20389 15.0206 5.19955C15.0224 5.18369 15.0224 5.16768 15.0206 5.15181V5.14313C15.0165 5.12758 15.0107 5.11254 15.0032 5.09829L12.7262 1.09982C12.719 1.08848 12.7108 1.07783 12.7016 1.06799L12.6886 1.05063C12.6765 1.03842 12.6629 1.02773 12.6481 1.01881C12.6353 1.01116 12.6217 1.00486 12.6076 1H12.5931H12.5541H3.46494H3.42588H3.41141C3.39729 1.00485 3.38372 1.01115 3.37091 1.01881C3.35625 1.02729 3.34265 1.03749 3.3304 1.04919L3.32027 1.05931C3.31112 1.06914 3.30288 1.0798 3.29568 1.09114L1.01869 5.08527C1.01124 5.09952 1.00542 5.11456 1.00133 5.13011V5.13879C0.999555 5.15466 0.999555 5.17067 1.00133 5.18653C1.00133 5.18653 1.00133 5.19521 1.00133 5.19955C1.00281 5.21379 1.00572 5.22785 1.01001 5.2415V5.25452C1.01606 5.27191 1.02433 5.28844 1.03461 5.30371L7.83374 14.9165L7.84098 14.9252C7.85118 14.9381 7.86283 14.9497 7.8757 14.9599L7.89161 14.9701C7.90389 14.9781 7.91698 14.9849 7.93067 14.9903H7.94803C7.9875 15.0032 8.03007 15.0032 8.06954 14.9903H8.0869C8.10059 14.9849 8.11368 14.9781 8.12596 14.9701L8.14187 14.9599C8.15474 14.9497 8.16639 14.9381 8.17659 14.9252L8.18383 14.9165L14.983 5.30371C14.9932 5.28844 15.0015 5.27191 15.0076 5.25452H15.0119ZM3.42154 1.73778L4.50072 4.97677H1.57998L3.42154 1.73778ZM10.9093 5.40931L8.00589 14.1194L5.10252 5.40931H10.9093ZM5.25441 4.97533L8.003 1.55261L10.7516 4.97533H5.25441ZM8.45869 1.42386H12.2373L11.1292 4.7511L8.45869 1.42386ZM4.88118 4.7511L3.77451 1.42386H7.5531L4.88118 4.7511ZM4.64394 5.41365L7.33466 13.4873L1.62628 5.40931L4.64394 5.41365ZM11.365 5.41365H14.3855L8.67568 13.4829L11.365 5.41365ZM11.5096 4.97967L12.5902 1.73778L14.4318 4.97533L11.5096 4.97967Z" fill="white" stroke="white" stroke-width="0.3"/>
</svg>
