<svg width="28" height="28" viewBox="0 0 28 28" fill="none" xmlns="http://www.w3.org/2000/svg">
<rect width="28" height="28" rx="3" fill="#222222"/>
<path fill-rule="evenodd" clip-rule="evenodd" d="M13.5882 7C14.0431 7 14.4118 7.36871 14.4118 7.82353V14.8501L16.2911 12.912C16.6078 12.5855 17.1292 12.5774 17.4556 12.8941C17.7821 13.2107 17.7902 13.7321 17.4736 14.0586L14.1794 17.4556C14.0244 17.6156 13.8111 17.7059 13.5882 17.7059C13.3654 17.7059 13.1521 17.6156 12.997 17.4556L9.70291 14.0586C9.38626 13.7321 9.39433 13.2107 9.72086 12.8941C10.0473 12.5774 10.5687 12.5855 10.8853 12.912L12.7647 14.8501V7.82353C12.7647 7.36871 13.1334 7 13.5882 7ZM7.82353 17.2941C8.27835 17.2941 8.64706 17.6628 8.64706 18.1176V18.5294C8.64706 18.9842 9.01575 19.3529 9.47059 19.3529H17.7059C18.1607 19.3529 18.5294 18.9842 18.5294 18.5294V18.1176C18.5294 17.6628 18.8981 17.2941 19.3529 17.2941C19.8078 17.2941 20.1765 17.6628 20.1765 18.1176V18.5294C20.1765 19.8939 19.0704 21 17.7059 21H9.47059C8.10612 21 7 19.8939 7 18.5294V18.1176C7 17.6628 7.36871 17.2941 7.82353 17.2941Z" fill="white" stroke="#222222" stroke-width="0.5"/>
</svg>
