<svg width="24" height="18" viewBox="0 0 24 18" fill="none" xmlns="http://www.w3.org/2000/svg">
<path d="M20.75 16.625L5.125 1M10.125 7.18914C9.73602 7.61798 9.5 8.18129 9.5 8.79824C9.5 10.1418 10.6193 11.2309 12 11.2309C12.6366 11.2309 13.2176 10.9994 13.659 10.6181M20.7904 11.2309C21.6511 9.94253 22 8.8918 22 8.8918C22 8.8918 19.7244 1.625 12 1.625C11.5663 1.625 11.1499 1.6479 10.75 1.69114M17.625 14.3848C16.1902 15.3001 14.3431 15.9474 12 15.9091C4.37179 15.7843 2 8.8918 2 8.8918C2 8.8918 3.10193 5.373 6.375 3.23262" stroke="#BFBFBF" stroke-width="2" stroke-linecap="round"/>
</svg>
