<svg width="30" height="22" viewBox="0 0 30 22" fill="none" xmlns="http://www.w3.org/2000/svg">
<path fill-rule="evenodd" clip-rule="evenodd" d="M30 0.6C30 0.2688 29.7314 0 29.4 0H0.6C0.26862 0 0 0.2688 0 0.6V20.58C0 20.9112 0.26862 21.18 0.6 21.18H29.4C29.7314 21.18 30 20.9112 30 20.58V0.6ZM26.6275 19.98L11.822 5.1744C11.5796 4.932 11.1862 4.932 10.9438 5.1744L1.2 14.9184V19.98H26.6275ZM28.8 13.2726L26.282 10.7544C26.0396 10.512 25.6462 10.512 25.4038 10.7544L22.2514 13.9068L28.3245 19.98H28.8V13.2726ZM1.2 13.2216L10.0953 4.326C10.8059 3.6156 11.9599 3.6156 12.6705 4.326L21.4029 13.0584L24.5553 9.906C25.2659 9.1956 26.4199 9.1956 27.1305 9.906L28.8 11.5752V1.2C25.0565 1.2 4.94352 1.2 1.2 1.2V13.2216ZM21.4029 2.1558C20.1682 2.1558 19.1658 3.1584 19.1658 4.3926C19.1658 5.6274 20.1682 6.63 21.4029 6.63C22.6376 6.63 23.64 5.6274 23.64 4.3926C23.64 3.1584 22.6376 2.1558 21.4029 2.1558ZM21.4029 3.3558C21.9753 3.3558 22.44 3.8202 22.44 4.3926C22.44 4.9656 21.9753 5.43 21.4029 5.43C20.8305 5.43 20.3658 4.9656 20.3658 4.3926C20.3658 3.8202 20.8305 3.3558 21.4029 3.3558Z" fill="#D2D2D2"/>
</svg>
