<svg width="22" height="22" viewBox="0 0 22 22" fill="none" xmlns="http://www.w3.org/2000/svg">
<path d="M10.8667 21C9.57096 21 8.28794 20.7413 7.09086 20.2388C5.89378 19.7363 4.80608 18.9997 3.88988 18.0711C2.97368 17.1425 2.2469 16.0401 1.75106 14.8268C1.25521 13.6136 1 12.3132 1 11C1 9.68678 1.25521 8.38642 1.75106 7.17317C2.2469 5.95991 2.97368 4.85752 3.88988 3.92893C4.80608 3.00035 5.89378 2.26375 7.09086 1.7612C8.28794 1.25866 9.57096 1 10.8667 1C13.4835 1 15.9931 2.05357 17.8435 3.92893C19.6938 5.8043 20.7333 8.34784 20.7333 11C20.7333 13.6522 19.6938 16.1957 17.8435 18.0711C15.9931 19.9464 13.4835 21 10.8667 21Z" stroke="white" stroke-width="1.5" stroke-linecap="round" stroke-linejoin="round"/>
<path d="M6.48193 15.4445L7.57823 14.3334L9.22267 15.4445L10.8671 14.3334L12.5116 15.4445L14.156 14.3334L15.2523 15.4445M7.03008 10.4445L8.67453 8.77787L7.03008 7.11121M14.7042 10.4445L13.0597 8.77787L14.7042 7.11121" stroke="white" stroke-width="1.5" stroke-linecap="round" stroke-linejoin="round"/>
</svg>
