<svg width="23" height="22" viewBox="0 0 23 22" fill="none" xmlns="http://www.w3.org/2000/svg">
<path d="M20.2004 10.7295C20.2003 8.75953 19.6102 6.83598 18.5082 5.21324C17.4061 3.59051 15.844 2.34504 14.0285 1.64155C12.2129 0.938062 10.2295 0.809693 8.34036 1.27342C6.45126 1.73715 4.74555 2.77113 3.4488 4.23861C2.15205 5.7061 1.32535 7.53795 1.07804 9.49192C0.830723 11.4459 1.17444 13.4299 2.06374 15.1816C2.95304 16.9333 4.34602 18.3702 6.05846 19.3022C7.7709 20.2341 9.72213 20.6173 11.6541 20.4011M7.40015 8.5673H7.41081M13.8003 8.5673H13.8109" stroke="white" stroke-width="1.5" stroke-linecap="round" stroke-linejoin="round"/>
<path d="M7.93359 13.9728C8.32409 14.3531 8.78974 14.6451 9.29981 14.8296C9.80987 15.0141 10.3527 15.0869 10.8926 15.0431M18.0607 21L20.7467 18.2107C21.08 17.8608 21.2667 17.3936 21.2675 16.9072C21.2682 16.4208 21.0831 15.953 20.7509 15.602C20.5894 15.4309 20.3953 15.2946 20.1805 15.2014C19.9657 15.1081 19.7345 15.0598 19.5008 15.0593C19.2672 15.0588 19.0358 15.1061 18.8206 15.1984C18.6054 15.2908 18.4108 15.4262 18.2485 15.5966L18.0693 15.7825L17.8901 15.5966C17.7284 15.4256 17.5343 15.2894 17.3195 15.1962C17.1046 15.103 16.8734 15.0548 16.6398 15.0544C16.4061 15.054 16.1747 15.1014 15.9595 15.1939C15.7444 15.2863 15.5498 15.4218 15.3876 15.5923C15.0546 15.9421 14.8681 16.4091 14.8674 16.8952C14.8666 17.3813 15.0515 17.8489 15.3834 18.1999L18.0607 21Z" stroke="white" stroke-width="1.5" stroke-linecap="round" stroke-linejoin="round"/>
</svg>
