<svg width="22" height="22" viewBox="0 0 22 22" fill="none" xmlns="http://www.w3.org/2000/svg">
<path d="M7.53333 8.77778H7.54422M14.0667 8.77778H14.0776M7.53333 14.3333H14.0667M1 11C1 12.3132 1.25348 13.6136 1.74598 14.8268C2.23848 16.0401 2.96034 17.1425 3.87035 18.0711C4.78037 18.9997 5.86071 19.7363 7.0497 20.2388C8.23869 20.7413 9.51305 21 10.8 21C12.087 21 13.3613 20.7413 14.5503 20.2388C15.7393 19.7363 16.8196 18.9997 17.7296 18.0711C18.6397 17.1425 19.3615 16.0401 19.854 14.8268C20.3465 13.6136 20.6 12.3132 20.6 11C20.6 9.68678 20.3465 8.38642 19.854 7.17317C19.3615 5.95991 18.6397 4.85752 17.7296 3.92893C16.8196 3.00035 15.7393 2.26375 14.5503 1.7612C13.3613 1.25866 12.087 1 10.8 1C9.51305 1 8.23869 1.25866 7.0497 1.7612C5.86071 2.26375 4.78037 3.00035 3.87035 3.92893C2.96034 4.85752 2.23848 5.95991 1.74598 7.17317C1.25348 8.38642 1 9.68678 1 11Z" stroke="white" stroke-width="1.5" stroke-linecap="round" stroke-linejoin="round"/>
</svg>
