<svg width="14" height="14" viewBox="0 0 14 14" fill="none" xmlns="http://www.w3.org/2000/svg">
<path d="M6.1946 6.16001V0.691352C6.1946 0.311098 6.50569 0 6.88595 0C7.2662 0 7.5773 0.311098 7.5773 0.691352V6.16001C7.5773 6.54026 7.2662 6.85136 6.88595 6.85136C6.50569 6.85136 6.1946 6.54026 6.1946 6.16001ZM11.2276 1.7838C10.9304 1.54182 10.4948 1.59022 10.2528 1.88059C10.0109 2.17788 10.0524 2.61342 10.3496 2.85539C11.6356 3.90624 12.3753 5.45487 12.3753 7.11412C12.3753 10.1424 9.90721 12.6104 6.87898 12.6104C3.85075 12.6104 1.38267 10.1424 1.38267 7.11412C1.38267 5.59314 1.99106 4.18278 3.09032 3.13193C3.36686 2.86921 3.38069 2.43367 3.11106 2.15713C2.84835 1.88059 2.41281 1.86676 2.13627 2.13639C0.760466 3.44996 0 5.21993 0 7.12099C0 10.9165 3.08354 14 6.87901 14C10.6745 14 13.758 10.9165 13.758 7.12099C13.758 5.04693 12.8316 3.10428 11.2207 1.7906L11.2276 1.7838Z" fill="white"/>
</svg>
