<svg width="154" height="24" viewBox="0 0 154 24" fill="none" xmlns="http://www.w3.org/2000/svg">
<path d="M11.2252 6.08293C12.3048 7.22407 12.8446 8.8987 12.8446 11.1084C12.8446 13.4396 12.3174 15.2152 11.2615 16.4385C10.2072 17.6601 8.84821 18.2709 7.18621 18.2709C6.12714 18.2709 5.248 18.0073 4.54722 17.4817C4.16368 17.1898 3.78961 16.7652 3.42343 16.2064V23.1022H0V4.66242H3.31453V6.61641C3.6886 6.04189 4.08792 5.58891 4.51249 5.25587C5.28588 4.66557 6.20606 4.37042 7.27302 4.37042C8.82927 4.37042 10.1456 4.94178 11.2252 6.08135V6.08293ZM8.57042 8.57198C8.10008 7.78754 7.33774 7.39453 6.2834 7.39453C5.01599 7.39453 4.14474 7.98957 3.67124 9.17965C3.42501 9.81098 3.30348 10.6128 3.30348 11.5835C3.30348 13.1208 3.71543 14.2019 4.5409 14.8254C5.03177 15.19 5.6126 15.3715 6.2834 15.3715C7.25724 15.3715 7.99906 14.999 8.51045 14.254C9.02183 13.509 9.27752 12.5178 9.27752 11.2804C9.27752 10.2608 9.04235 9.358 8.572 8.57356L8.57042 8.57198Z" fill="black"/>
<path d="M25.9384 4.73505C26.6029 5.01915 27.149 5.45162 27.5767 6.0356C27.9397 6.52963 28.1607 7.03785 28.2412 7.56029C28.3217 8.08272 28.3627 8.93503 28.3627 10.1172V17.8937H24.8304V9.83626C24.8304 9.12285 24.7104 8.54833 24.4689 8.11113C24.1549 7.49557 23.5614 7.1878 22.6854 7.1878C21.8094 7.1878 21.0881 7.494 20.6194 8.10482C20.149 8.71721 19.9138 9.59004 19.9138 10.7233V17.8937H16.4541V0.0599823H19.9138V6.37337C20.4142 5.60472 20.9918 5.06808 21.6484 4.76503C22.305 4.46199 22.9963 4.31047 23.7208 4.31047C24.5352 4.31047 25.2739 4.45252 25.9384 4.73505Z" fill="black"/>
<path d="M41.3826 4.92919C42.3059 5.34271 43.0683 5.99457 43.6696 6.88634C44.211 7.67235 44.563 8.58464 44.724 9.62161C44.8171 10.2293 44.855 11.1053 44.8376 12.248H35.2002C35.2539 13.5754 35.7147 14.5066 36.5844 15.0401C37.1132 15.3715 37.7492 15.5373 38.4926 15.5373C39.2802 15.5373 39.921 15.3352 40.4135 14.9296C40.6818 14.7118 40.9201 14.4072 41.1253 14.0189H44.6577C44.5645 14.8033 44.1368 15.602 43.3745 16.4101C42.1891 17.6964 40.5303 18.3404 38.3964 18.3404C36.6349 18.3404 35.0818 17.7975 33.7355 16.7115C32.3892 15.6256 31.7168 13.8595 31.7168 11.413C31.7168 9.12128 32.3245 7.363 33.5398 6.13978C34.7551 4.91656 36.3319 4.30574 38.2717 4.30574C39.4239 4.30574 40.4608 4.5125 41.3842 4.92603L41.3826 4.92919ZM36.2072 7.91858C35.7179 8.42207 35.4117 9.10549 35.2854 9.96727H41.2469C41.1837 9.04867 40.8775 8.35104 40.3251 7.87596C39.7727 7.40088 39.0893 7.16255 38.2733 7.16255C37.3846 7.16255 36.6965 7.41508 36.2072 7.91858Z" fill="black"/>
<path d="M58.4019 5.42005C59.2684 6.13662 59.7009 7.32354 59.7009 8.98396V17.8953H56.1559V9.84574C56.1559 9.14969 56.0644 8.61621 55.8781 8.24372C55.5404 7.56345 54.898 7.2241 53.9494 7.2241C52.7846 7.2241 51.9844 7.72128 51.5519 8.71722C51.3262 9.24281 51.2141 9.91519 51.2141 10.7328V17.8953H47.7544V4.68612H51.1052V6.61644C51.5487 5.93617 51.967 5.44689 52.3632 5.147C53.0718 4.61352 53.9715 4.3452 55.059 4.3452C56.4211 4.3452 57.5354 4.70348 58.4019 5.42005Z" fill="black"/>
<path d="M75.0977 16.2759C73.9802 17.6554 72.2851 18.3436 70.0107 18.3436C67.7363 18.3436 66.0411 17.6538 64.9236 16.2759C63.8062 14.898 63.249 13.2376 63.249 11.2962C63.249 9.35488 63.8078 7.73391 64.9236 6.3355C66.0411 4.93708 67.7363 4.2363 70.0107 4.2363C72.2851 4.2363 73.9802 4.93551 75.0977 6.3355C76.2151 7.73391 76.7723 9.38802 76.7723 11.2962C76.7723 13.2045 76.2136 14.8965 75.0977 16.2759ZM72.3293 14.363C72.8722 13.6432 73.1421 12.6221 73.1421 11.2962C73.1421 9.97043 72.8706 8.95082 72.3293 8.23583C71.7863 7.52084 71.0098 7.16255 69.998 7.16255C68.9863 7.16255 68.2066 7.52084 67.6605 8.23583C67.1144 8.95082 66.8413 9.97201 66.8413 11.2962C66.8413 12.6205 67.1144 13.6448 67.6605 14.363C68.2066 15.0827 68.9863 15.441 69.998 15.441C71.0098 15.441 71.7863 15.0811 72.3293 14.363Z" fill="black"/>
<path d="M96.9027 4.70977C97.4693 4.93705 97.9839 5.33321 98.4448 5.89984C98.8172 6.36072 99.0682 6.92734 99.1976 7.59972C99.2781 8.04481 99.3192 8.69667 99.3192 9.55371L99.2955 17.8937H95.7505V9.47006C95.7505 8.96815 95.67 8.5562 95.5075 8.23106C95.1997 7.6155 94.6331 7.30773 93.8076 7.30773C92.8527 7.30773 92.1929 7.70389 91.8283 8.4978C91.6421 8.91922 91.549 9.42429 91.549 10.0162V17.8953H88.064V10.0162C88.064 9.23173 87.9835 8.66037 87.8209 8.30366C87.5289 7.66443 86.9591 7.34403 86.1084 7.34403C85.1204 7.34403 84.4575 7.66443 84.1181 8.30366C83.9319 8.66826 83.8387 9.20963 83.8387 9.93094V17.8953H80.3301V4.68609H83.6935V6.61641C84.1228 5.92825 84.5269 5.43896 84.9073 5.14697C85.5797 4.62927 86.4493 4.37042 87.5179 4.37042C88.5296 4.37042 89.3472 4.59297 89.9706 5.03806C90.4725 5.45159 90.8529 5.98034 91.1118 6.62904C91.5648 5.85249 92.1266 5.28113 92.799 4.91653C93.5109 4.55193 94.3048 4.37042 95.1792 4.37042C95.7616 4.37042 96.3361 4.48406 96.9027 4.70977Z" fill="black"/>
<path d="M112.266 4.92919C113.19 5.34271 113.952 5.99457 114.553 6.88634C115.095 7.67235 115.447 8.58464 115.608 9.62161C115.701 10.2293 115.739 11.1053 115.721 12.248H106.084C106.138 13.5754 106.599 14.5066 107.468 15.0401C107.997 15.3715 108.633 15.5373 109.376 15.5373C110.164 15.5373 110.805 15.3352 111.297 14.9296C111.566 14.7118 111.804 14.4072 112.009 14.0189H115.541C115.448 14.8033 115.021 15.602 114.258 16.4101C113.073 17.6964 111.414 18.3404 109.28 18.3404C107.519 18.3404 105.966 17.7975 104.619 16.7115C103.273 15.6256 102.601 13.8595 102.601 11.413C102.601 9.12128 103.208 7.363 104.424 6.13978C105.639 4.91656 107.216 4.30574 109.155 4.30574C110.308 4.30574 111.345 4.5125 112.268 4.92603L112.266 4.92919ZM107.091 7.91858C106.602 8.42207 106.295 9.10549 106.169 9.96727H112.131C112.068 9.04867 111.761 8.35104 111.209 7.87596C110.658 7.40088 109.973 7.16255 109.157 7.16255C108.268 7.16255 107.58 7.41508 107.091 7.91858Z" fill="black"/>
<path d="M129.286 5.42005C130.152 6.13662 130.585 7.32354 130.585 8.98396V17.8953H127.04V9.84574C127.04 9.14969 126.947 8.61621 126.762 8.24372C126.424 7.56345 125.782 7.2241 124.833 7.2241C123.668 7.2241 122.868 7.72128 122.436 8.71722C122.21 9.24281 122.098 9.91519 122.098 10.7328V17.8953H118.638V4.68612H121.989V6.61644C122.433 5.93617 122.851 5.44689 123.247 5.147C123.956 4.61352 124.855 4.3452 125.943 4.3452C127.305 4.3452 128.419 4.70348 129.286 5.42005Z" fill="black"/>
<path d="M140.187 9.84574C140.831 9.76524 141.292 9.66423 141.57 9.5427C142.067 9.33278 142.316 9.00448 142.316 8.55939C142.316 8.01801 142.125 7.64237 141.743 7.4356C141.361 7.22884 140.803 7.12625 140.064 7.12625C139.235 7.12625 138.648 7.32828 138.304 7.73391C138.058 8.0338 137.894 8.43785 137.812 8.94766H134.473C134.546 7.79073 134.871 6.83899 135.449 6.09401C136.367 4.92919 137.944 4.3452 140.179 4.3452C141.634 4.3452 142.927 4.63246 144.057 5.20698C145.187 5.7815 145.752 6.86582 145.752 8.45995V14.5303C145.752 14.9517 145.76 15.4615 145.776 16.0597C145.8 16.5127 145.869 16.8205 145.983 16.983C146.096 17.1456 146.265 17.2782 146.493 17.3839V17.8937H142.73C142.624 17.627 142.551 17.376 142.512 17.1409C142.471 16.9057 142.439 16.6389 142.414 16.3391C141.934 16.8568 141.38 17.2987 140.754 17.6617C140.004 18.091 139.158 18.3057 138.214 18.3057C137.01 18.3057 136.014 17.9632 135.228 17.2798C134.442 16.5963 134.049 15.6272 134.049 14.3724C134.049 12.7452 134.68 11.5677 135.944 10.8401C136.637 10.4439 137.657 10.1598 139.002 9.99095L140.189 9.84574H140.187ZM142.302 11.4604C142.081 11.5977 141.857 11.7098 141.631 11.795C141.406 11.8802 141.096 11.9591 140.702 12.0317L139.914 12.177C139.175 12.3064 138.645 12.4642 138.323 12.6505C137.778 12.9661 137.505 13.4554 137.505 14.1199C137.505 14.7102 137.671 15.1379 138.004 15.4015C138.337 15.6651 138.741 15.7961 139.218 15.7961C139.974 15.7961 140.67 15.5783 141.308 15.1411C141.945 14.7039 142.275 13.9068 142.3 12.7499V11.4635L142.302 11.4604Z" fill="#FC0808"/>
<path d="M153.45 0H149.99V2.38646H153.45V0Z" fill="#FC0808"/>
<path d="M153.45 4.11475H149.99V17.8937H153.45V4.11475Z" fill="#FC0808"/>
</svg>
